<?xml version="1.0" encoding="UTF-8"?>
<!DOCTYPE svg PUBLIC "-//W3C//DTD SVG 1.1//EN" "http://www.w3.org/Graphics/SVG/1.1/DTD/svg11.dtd">
<!-- Creator: CorelDRAW 2020 (64-Bit) -->
<svg xmlns="http://www.w3.org/2000/svg" xml:space="preserve" width="69.2997mm" height="53.3632mm" version="1.1" style="shape-rendering:geometricPrecision; text-rendering:geometricPrecision; image-rendering:optimizeQuality; fill-rule:evenodd; clip-rule:evenodd"
viewBox="0 0 647.02 498.23"
 xmlns:xlink="http://www.w3.org/1999/xlink"
 xmlns:xodm="http://www.corel.com/coreldraw/odm/2003">
 <defs>
  <style type="text/css">
   <![CDATA[
    .str0 {stroke:#3884FD;stroke-width:1.87;stroke-miterlimit:22.9256}
    .fil1 {fill:none}
    .fil2 {fill:#3884FD}
    .fil0 {fill:#3884FD;fill-rule:nonzero}
   ]]>
  </style>
 </defs>
 <g id="Слой_x0020_1">
  <metadata id="CorelCorpID_0Corel-Layer"/>
  <path class="fil0 str0" d="M105.99 405.26c0,1.06 -0.38,1.96 -1.14,2.73 -0.76,0.76 -1.61,1.14 -2.55,1.14l-23.05 0c-1.64,0 -2.93,-0.21 -3.87,-0.62 -0.94,-0.41 -1.99,-1.14 -3.17,-2.2 -0.23,-0.24 -1,-1.03 -2.29,-2.38 -1.29,-1.35 -3.31,-2.55 -6.07,-3.61 -2.76,-1.06 -5.95,-1.58 -9.59,-1.58 -5.04,0 -9.18,0.67 -12.41,2.02 -3.23,1.35 -4.84,3.67 -4.84,6.95 0,2.35 1,4.19 2.99,5.54 1.99,1.35 5.07,2.55 9.24,3.61 4.17,1.06 11.41,2.64 21.73,4.75 13.26,2.7 22.99,6.92 29.21,12.67 6.22,5.75 9.33,13.96 9.33,24.64 0,7.74 -2.32,14.52 -6.95,20.33 -4.63,5.81 -11.09,10.27 -19.36,13.37 -8.27,3.11 -17.63,4.66 -28.07,4.66 -10.09,0 -19.24,-1.76 -27.45,-5.28 -8.21,-3.52 -14.66,-8.09 -19.36,-13.73 -4.69,-5.63 -7.16,-11.44 -7.39,-17.42 0,-1.06 0.38,-1.97 1.14,-2.73 0.76,-0.76 1.61,-1.14 2.55,-1.14l23.05 0c2.58,0 4.81,0.82 6.69,2.46 0.35,0.35 1.29,1.38 2.82,3.08 1.52,1.7 3.84,3.23 6.95,4.58 3.11,1.35 6.78,2.02 11,2.02 14.55,0 21.82,-3.11 21.82,-9.33 0,-1.99 -1.03,-3.67 -3.08,-5.02 -2.05,-1.35 -4.96,-2.49 -8.71,-3.43 -3.75,-0.94 -9.74,-2.29 -17.95,-4.05l-7.92 -1.58c-11.97,-2.58 -20.77,-6.89 -26.4,-12.93 -5.63,-6.04 -8.45,-14.11 -8.45,-24.2 0,-6.8 2.05,-13.11 6.16,-18.92 4.11,-5.81 9.94,-10.44 17.51,-13.9 7.57,-3.46 16.28,-5.19 26.13,-5.19 9.5,0 18.18,1.79 26.04,5.37 7.86,3.58 14.05,8.07 18.57,13.46 4.52,5.4 6.89,10.68 7.13,15.84zm101.19 90.28c-1.76,0 -3.28,-0.44 -4.57,-1.32 -1.29,-0.88 -2.17,-1.79 -2.64,-2.73l-40.3 -60.19 0 59.48c0,1.29 -0.47,2.41 -1.41,3.34 -0.94,0.94 -2.05,1.41 -3.34,1.41l-23.05 0c-1.29,0 -2.41,-0.47 -3.34,-1.41 -0.94,-0.94 -1.41,-2.05 -1.41,-3.34l0 -113.68c0,-1.29 0.47,-2.41 1.41,-3.34 0.94,-0.94 2.05,-1.41 3.34,-1.41l18.3 0c1.76,0 3.29,0.44 4.58,1.32 1.29,0.88 2.17,1.79 2.64,2.73l40.3 60.19 0 -59.48c0,-1.29 0.47,-2.41 1.41,-3.34 0.94,-0.94 2.05,-1.41 3.34,-1.41l23.05 0c1.29,0 2.41,0.47 3.34,1.41 0.94,0.94 1.41,2.05 1.41,3.34l0 113.68c0,1.29 -0.47,2.41 -1.41,3.34 -0.94,0.94 -2.05,1.41 -3.34,1.41l-18.3 0zm159.08 -6.51c0.47,1.17 0.7,2.05 0.7,2.64 0,1.06 -0.38,1.97 -1.14,2.73 -0.76,0.76 -1.67,1.14 -2.73,1.14l-22.17 0c-2,0 -3.55,-0.44 -4.66,-1.32 -1.11,-0.88 -1.85,-1.91 -2.2,-3.08l-4.93 -14.61 -46.81 0 -4.93 14.61c-0.35,1.17 -1.08,2.2 -2.2,3.08 -1.11,0.88 -2.67,1.32 -4.66,1.32l-22.17 0c-1.06,0 -1.97,-0.38 -2.73,-1.14 -0.76,-0.76 -1.14,-1.67 -1.14,-2.73 0,-0.59 0.24,-1.47 0.7,-2.64l38.36 -110.87c0.59,-1.64 1.52,-3.02 2.82,-4.14 1.29,-1.11 2.99,-1.67 5.1,-1.67l28.51 0c2.11,0 3.81,0.56 5.1,1.67 1.29,1.11 2.23,2.49 2.82,4.14l38.36 110.87zm-46.28 -39.77l-14.25 -42.23 -14.25 42.23 28.51 0zm65.99 46.28c-1.29,0 -2.41,-0.47 -3.34,-1.41 -0.94,-0.94 -1.41,-2.05 -1.41,-3.34l0 -113.68c0,-1.29 0.47,-2.41 1.41,-3.34 0.94,-0.94 2.05,-1.41 3.34,-1.41l23.05 0c1.29,0 2.41,0.47 3.34,1.41 0.94,0.94 1.41,2.05 1.41,3.34l0 113.68c0,1.29 -0.47,2.41 -1.41,3.34 -0.94,0.94 -2.05,1.41 -3.34,1.41l-23.05 0zm121.43 -28.16c1.29,0 2.41,0.47 3.34,1.41 0.94,0.94 1.41,2.05 1.41,3.34l0 18.65c0,1.29 -0.47,2.41 -1.41,3.34 -0.94,0.94 -2.05,1.41 -3.34,1.41l-81.48 0c-1.29,0 -2.41,-0.47 -3.34,-1.41 -0.94,-0.94 -1.41,-2.05 -1.41,-3.34l0 -113.68c0,-1.29 0.47,-2.41 1.41,-3.34 0.94,-0.94 2.05,-1.41 3.34,-1.41l23.05 0c1.29,0 2.41,0.47 3.34,1.41 0.94,0.94 1.41,2.05 1.41,3.34l0 90.28 53.67 0zm84.29 23.4c0,1.29 -0.47,2.41 -1.41,3.34 -0.94,0.94 -2.05,1.41 -3.34,1.41l-23.05 0c-1.29,0 -2.41,-0.47 -3.34,-1.41 -0.94,-0.94 -1.41,-2.05 -1.41,-3.34l0 -37.48 -40.65 -74.79c-0.47,-0.82 -0.7,-1.58 -0.7,-2.29 0,-1.06 0.38,-1.97 1.14,-2.73 0.76,-0.76 1.67,-1.14 2.73,-1.14l24.11 0c1.99,0 3.61,0.5 4.84,1.5 1.23,1 2.08,1.97 2.55,2.9l22.17 43.29 22.35 -43.29c0.47,-0.94 1.32,-1.91 2.55,-2.9 1.23,-1 2.85,-1.5 4.84,-1.5l24.11 0c1.06,0 1.97,0.38 2.73,1.14 0.76,0.76 1.14,1.67 1.14,2.73 0,0.7 -0.24,1.47 -0.7,2.29l-40.65 74.79 0 37.48z"/>
  <line class="fil1 str0" x1="17.64" y1="324.96" x2="442.12" y2= "324.96" />
  <path class="fil1 str0" d="M442.12 324.96c11.71,-0.93 22.55,-7.42 32.54,-19.45 39.21,-57.3 71.26,-100.74 96.15,-130.31 2.37,-14.16 -6.86,-21.5 -27.68,-22.03 -14.09,-0.67 -26.64,4.75 -37.67,16.26 -33.35,34.53 -60.93,64 -82.75,88.42 -15.88,19.37 -33.72,34.67 -53.52,45.91 -14.78,8.39 -28.74,15.46 -41.89,21.2"/>
  <path class="fil1 str0" d="M121.99 324.96c50.1,-36 50.84,-36.36 2.21,-1.08"/>
  <path class="fil1 str0" d="M196.38 324.96c-17.64,-12.73 -29.72,-21.82 -36.26,-27.27"/>
  <path class="fil1 str0" d="M15.18 351c136.69,0 278.32,0 424.89,0"/>
  <path class="fil1 str0" d="M15.18 351c-2.25,-0.29 -3.84,-1.18 -5.42,-2.62 -7.69,-7.06 -5.44,-22.96 7.89,-23.42"/>
  <path class="fil1 str0" d="M440.07 351c21.39,-3.01 37.8,-11.26 49.21,-24.76 38.18,-53.77 73.93,-102.08 107.25,-144.92 0.93,-2.27 1.71,-4.25 2.03,-6.51 1.64,-11.65 -4.43,-23.3 -13.15,-31.98 -13.23,-13.06 -29.19,-18.45 -47.86,-16.18 -12.73,1.52 -23.88,5.09 -33.45,10.71 -20.21,15.65 -47.48,43.17 -81.83,82.55 -0.85,-19.9 -2.19,-33.39 -4.01,-40.45 -6.38,-25.13 -15.37,-44.05 -26.96,-56.76 -23.1,-27.75 -47.46,-45.32 -73.08,-52.7 -33.62,-11.47 -65.36,-11.41 -95.21,0.2 -60.4,19.14 -104.9,83.35 -98.91,146.78 2.29,23.22 8.26,43.42 17.91,60.62 -29.4,22.32 -52.45,38.11 -69.16,47.37"/>
  <path class="fil1 str0" d="M199.62 292.37c-1.79,0.41 -1.84,0.98 -0.16,1.69 16.79,10.69 38.48,13.09 65.05,7.21 22.53,-5.4 40.06,-22.28 52.6,-50.64 6.43,-18.83 5.91,-37.33 -1.54,-55.48 -8.32,-18.08 -21.01,-28.85 -38.08,-32.32 -18.31,-6.17 -34.3,-3.7 -47.96,7.41 -3.99,3.88 -7.95,8.73 -11.89,14.56 -7.28,5.86 -13.85,3.37 -19.71,-7.46 -3.07,-6.09 2.83,-15.61 17.7,-28.56 14.06,-11.24 29.7,-16.49 46.94,-15.75 23.06,1.09 41.96,9.05 56.71,23.88 15.19,14.68 24.49,31.11 27.9,49.3 2.79,27.84 -0.02,47.94 -8.44,60.32 -7.93,14.26 -15.03,24.83 -21.3,31.7 9.55,0.89 29.28,-9.57 59.19,-31.39 3.69,-2.47 7.23,-5.04 10.6,-7.72 7.47,-16.63 9.87,-38.39 7.21,-65.26 -6.11,-29.21 -18.43,-52.89 -36.95,-71.02 -27.37,-23.09 -52.83,-34.41 -76.37,-33.97 -33.64,-1.57 -61.29,6.6 -82.96,24.5 -20.37,15.73 -34.37,35.01 -41.99,57.85 -6.13,20.85 -7.71,38.76 -4.73,53.73 0.78,6.52 2.36,13.66 4.73,21.41 14.96,14.5 32.87,20.61 53.73,18.32 12.55,-0.81 26.79,-8.49 42.72,-23.06 5.16,-4.04 8.21,-10.87 9.16,-20.48 0.6,-4.87 -1.87,-6.93 -7.41,-6.18 -6.96,0.66 -14.16,4.16 -21.62,10.5 -7.53,4.54 -13.67,2.82 -18.42,-5.15 -2.64,-4.78 -2.74,-9.58 -0.31,-14.41 14.04,-17.42 48.31,-27.18 65.78,-9.68 9.77,9.7 12.24,22.57 7.41,38.6 -5.77,17.74 -15.37,30.88 -28.81,39.42 -16.53,11.74 -36.12,17.78 -58.77,18.12z"/>
  <rect class="fil2 str0" transform="matrix(0.376585 0.217421 -0.0650901 0.112739 585.254 90.5269)" width="55.33" height="173.91" rx="11.41" ry="11.41"/>
  <rect class="fil2 str0" transform="matrix(0.376585 0.217421 -0.208136 0.360502 626.961 18.289)" width="55.33" height="173.91" rx="10.74" ry="10.74"/>
  <rect class="fil2 str0" transform="matrix(0.433188 0.037899 -0.0113459 0.129685 534.969 83.6397)" width="55.33" height="173.91" rx="11.41" ry="11.41"/>
  <rect class="fil2 str0" transform="matrix(0.433188 0.037899 -0.0362805 0.414688 542.239 0.543966)" width="55.33" height="173.91" rx="10.74" ry="10.74"/>
  <path class="fil2 str0" d="M72.85 324.96l-55.21 0c-13.33,0.45 -15.58,16.36 -7.89,23.42 1.58,1.45 3.18,2.34 5.42,2.62 136.69,0 278.32,0 424.89,0 21.39,-3.01 37.8,-11.26 49.21,-24.76 38.18,-53.77 73.93,-102.08 107.25,-144.92 0.93,-2.27 1.71,-4.25 2.03,-6.51 1.64,-11.65 -4.43,-23.3 -13.15,-31.98 -13.23,-13.06 -29.19,-18.45 -47.86,-16.18 -12.73,1.52 -24.6,4.57 -33.45,10.71 -20.21,15.65 -47.48,43.17 -81.83,82.55 -0.85,-19.9 -2.19,-33.39 -4.01,-40.45 -6.38,-25.13 -15.37,-44.05 -26.96,-56.76 -23.1,-27.75 -47.46,-45.32 -73.08,-52.7 -33.62,-11.47 -65.36,-11.41 -95.21,0.2 -60.4,19.14 -104.9,83.35 -98.91,146.78 2.29,23.22 8.26,43.42 17.91,60.62 -29.4,22.32 -52.45,38.11 -69.16,47.37zm123.53 0l-74.4 0c25.37,-18.23 38.08,-27.32 38.14,-27.27 6.54,5.46 18.62,14.55 36.26,27.27zm130.89 0c13.15,-5.74 27.12,-12.81 41.89,-21.2 19.8,-11.24 37.65,-26.54 53.52,-45.91 21.82,-24.41 49.4,-53.89 82.75,-88.42 11.03,-11.51 23.58,-16.94 37.67,-16.26 20.83,0.52 30.06,7.87 27.68,22.03 -24.89,29.57 -56.94,73.01 -96.15,130.31 -9.98,12.03 -20.83,18.52 -32.54,19.45l-114.84 0zm67.16 -131.1c2.41,24.28 4.69,57.94 -17.81,72.98 -29.91,21.82 -49.64,32.29 -59.19,31.39 6.27,-6.88 13.37,-17.44 21.3,-31.7 8.42,-12.38 11.23,-32.48 8.44,-60.32 -3.41,-18.19 -12.71,-34.63 -27.9,-49.3 -14.75,-14.83 -33.66,-22.79 -56.71,-23.88 -17.23,-0.74 -32.88,4.51 -46.94,15.75 -14.87,12.95 -20.77,22.47 -17.7,28.56 5.86,10.83 12.43,13.32 19.71,7.46 3.94,-5.83 7.9,-10.68 11.89,-14.56 13.67,-11.11 29.65,-13.58 47.96,-7.41 17.07,3.46 29.77,14.24 38.08,32.32 7.45,18.15 7.96,36.64 1.54,55.48 -12.54,28.36 -30.07,45.24 -52.6,50.64 -26.58,5.88 -48.26,3.48 -65.05,-7.21 -1.68,-0.71 -1.63,-1.28 0.16,-1.69 22.65,-0.33 42.24,-6.37 58.77,-18.12 13.44,-8.54 23.05,-21.68 28.81,-39.42 4.83,-16.03 2.36,-28.89 -7.41,-38.6 -17.47,-17.5 -51.74,-7.75 -65.78,9.68 -2.43,4.83 -2.33,9.63 0.31,14.41 4.75,7.97 10.89,9.68 18.42,5.15 7.45,-6.34 14.66,-9.84 21.62,-10.5 5.54,-0.75 8.01,1.31 7.41,6.18 -0.95,9.61 -4,16.44 -9.16,20.48 -15.93,14.56 -30.17,22.25 -42.72,23.06 -20.86,2.29 -38.77,-3.82 -53.73,-18.32 -2.37,-7.75 -3.95,-14.89 -4.73,-21.41 -2.98,-14.96 -1.4,-32.87 4.73,-53.73 7.62,-22.84 21.62,-42.12 41.99,-57.85 21.67,-17.9 49.32,-26.06 82.96,-24.5 23.55,-0.44 49,10.88 76.37,33.97 18.52,18.14 30.83,41.81 36.95,71.02z"/>
 </g>
</svg>
