<?xml version="1.0" encoding="UTF-8"?>
<!DOCTYPE svg PUBLIC "-//W3C//DTD SVG 1.1//EN" "http://www.w3.org/Graphics/SVG/1.1/DTD/svg11.dtd">
<!-- Creator: CorelDRAW 2020 (64-Bit) -->
<svg xmlns="http://www.w3.org/2000/svg" xml:space="preserve" width="58.8934mm" height="34.9476mm" version="1.1" style="shape-rendering:geometricPrecision; text-rendering:geometricPrecision; image-rendering:optimizeQuality; fill-rule:evenodd; clip-rule:evenodd"
viewBox="0 0 399.43 237.02"
 xmlns:xlink="http://www.w3.org/1999/xlink"
 xmlns:xodm="http://www.corel.com/coreldraw/odm/2003">
 <defs>
  <style type="text/css">
   <![CDATA[
    .str2 {stroke:#1F1B20;stroke-width:2.39;stroke-miterlimit:22.9256}
    .str3 {stroke:#2B2A29;stroke-width:1.36;stroke-miterlimit:22.9256}
    .str4 {stroke:#2A2829;stroke-width:1.36;stroke-miterlimit:22.9256}
    .str1 {stroke:#3884FD;stroke-width:1.36;stroke-miterlimit:22.9256}
    .str0 {stroke:#243762;stroke-width:0.52;stroke-miterlimit:22.9256}
    .fil2 {fill:none}
    .fil3 {fill:#E63C24}
    .fil0 {fill:#243762}
    .fil1 {fill:#3884FD}
   ]]>
  </style>
 </defs>
 <g id="Слой_x0020_1">
  <metadata id="CorelCorpID_0Corel-Layer"/>
  <path class="fil0 str0" d="M261.01 124.71c-2.35,1.49 -5.17,2.12 -7.6,2.98 -1.62,0.57 -3.06,1.25 -4.79,1.94 -1.39,3.42 -3.46,6.74 -5.87,9.27 -4.78,5.02 -10.9,6.9 -18.42,9.25 -7.53,2.35 -16.46,5.17 -23.6,7.6 -7.13,2.43 -12.47,4.47 -18.27,6.66 -5.8,2.2 -12.07,4.55 -16.31,6.98 -4.23,2.43 -6.43,4.94 -10.35,8 -3.92,3.06 -9.57,6.66 -16.86,10.51 -7.29,3.84 -16.23,7.92 -25.87,10.82 -9.64,2.9 -19.99,4.63 -34.65,1.02 -1.53,-0.38 -3.11,-0.81 -4.73,-1.3 -3.02,0.04 -5.73,0.03 -8.6,-0.04 -3.53,-0.08 -7.29,-0.23 -10.74,0.08 -3.45,0.31 -6.59,1.1 -10.43,2.59 -3.84,1.49 -8.39,3.68 -12.62,5.72 -4.23,2.04 -8.15,3.92 -12.47,5.88 -4.31,1.96 -9.02,4 -12.47,5.96 -3.45,1.96 -5.64,3.84 -6.04,6.66 -0.39,2.82 1.02,6.59 5.64,7.76 4.63,1.18 12.47,-0.24 20.07,-0.86 7.6,-0.63 14.97,-0.47 21.09,0.31 6.12,0.78 10.98,2.19 16.62,2.9 5.64,0.71 12.07,0.71 20.07,0.94 8,0.24 17.56,0.71 26.81,0.16 9.25,-0.55 18.19,-2.12 25.17,-2.98 6.98,-0.86 12,-1.02 17.64,-1.41 5.64,-0.39 11.92,-1.02 16.78,-1.25 4.86,-0.24 8.31,-0.08 12.15,0.55 3.84,0.63 8.08,1.73 14.19,2.43 6.11,0.71 14.11,1.02 22.5,1.02 8.39,0 17.17,-0.31 24.38,-1.1 7.21,-0.78 12.86,-2.04 18.74,-3.92 5.88,-1.88 12,-4.39 16.46,-7.53 4.47,-3.14 7.29,-6.9 9.49,-10.74 2.2,-3.84 3.76,-7.76 5.57,-11.92 1.8,-4.16 3.84,-8.55 5.96,-13.02 2.12,-4.47 4.31,-9.02 6.59,-12.62 2.27,-3.61 4.63,-6.27 7.21,-9.25 2.59,-2.98 5.41,-6.27 10.04,-8.7 4.63,-2.43 11.06,-4 14.98,-5.02 3.92,-1.02 5.33,-1.49 8.23,-1.25 2.9,0.24 7.29,1.18 10.74,2.59 3.45,1.41 5.96,3.29 7.37,3.69 1.41,0.39 1.73,-0.71 1.33,-2.35 -0.39,-1.65 -1.49,-3.84 -2.35,-5.33 -0.86,-1.49 -1.49,-2.27 -2.19,-3.53 -0.71,-1.25 -1.49,-2.98 -1.8,-4.31 -0.31,-1.33 -0.16,-2.27 0.71,-2.43 0.86,-0.16 2.43,0.47 4.23,1.8 1.8,1.33 3.84,3.37 6.11,4.7 2.27,1.33 4.78,1.96 6.12,1.88 1.33,-0.08 1.49,-0.86 0.63,-2.67 -0.86,-1.8 -2.74,-4.63 -4.31,-7.06 -1.57,-2.43 -2.82,-4.47 -3.45,-6.66 -0.63,-2.2 -0.63,-4.55 -0.39,-7.13 0.24,-2.59 0.71,-5.41 0.63,-8.7 -0.08,-3.29 -0.7,-7.06 -1.18,-9.88 -0.47,-2.82 -0.78,-4.7 -1.18,-6.35 -0.39,-1.65 -0.86,-3.06 -1.57,-4.55 -0.71,-1.49 -1.65,-3.06 -2.82,-4.86 -1.18,-1.8 -2.59,-3.84 -4.86,-5.96 -2.27,-2.12 -5.41,-4.31 -8.08,-5.65 -2.67,-1.33 -4.86,-1.8 -8.39,-2.04 -3.53,-0.24 -8.39,-0.24 -12.7,-0.16 -4.31,0.08 -8.08,0.23 -12.31,1.41 -4.23,1.18 -8.94,3.37 -12.62,5.72 -3.68,2.35 -6.35,4.86 -8.94,7.29 -2.59,2.43 -5.1,4.78 -7.21,6.98 -2.12,2.2 -3.84,4.23 -6.04,6.35 -2.19,2.12 -4.86,4.31 -7.45,6.98 -2.59,2.67 -5.1,5.8 -7.29,8.55 -2.19,2.74 -4.08,5.1 -6.43,6.59z"/>
  <path class="fil1 str1" d="M250.82 130.25c1.37,-3.37 2.08,-6.82 1.81,-9.7 -0.55,-5.8 -5.1,-9.25 -8.47,-12.94 -3.37,-3.68 -5.57,-7.6 -8.39,-13.01 -2.82,-5.41 -6.27,-12.31 -9.25,-18.58 -2.98,-6.27 -5.49,-11.92 -8.7,-17.8 -3.21,-5.88 -7.13,-12 -12.86,-17.88 -5.72,-5.88 -13.25,-11.53 -21.01,-16.46 -7.76,-4.94 -15.76,-9.17 -26.34,-13.17 -10.58,-4 -23.76,-7.76 -34.89,-9.25 -11.13,-1.49 -20.23,-0.71 -29.56,1.25 -9.33,1.96 -18.9,5.1 -27.52,9.49 -8.62,4.39 -16.31,10.04 -22.97,17.25 -6.66,7.21 -12.31,15.99 -17.41,24.15 -5.1,8.15 -9.64,15.68 -12.54,23.13 -2.9,7.45 -4.16,14.82 -4.47,22.66 -0.31,7.84 0.31,16.15 1.33,23.99 1.02,7.84 2.43,15.21 4,22.27 1.57,7.06 3.29,13.8 5.72,19.29 2.43,5.49 5.57,9.72 16.62,16.31 9.9,5.9 26.15,13.68 39.96,17.83 0.7,-0.01 -0.19,0.01 2.14,-0.04 2.33,-0.05 10.31,3.65 14.86,3.26 4.55,-0.39 10.93,-1.08 15.79,-2.26 4.86,-1.18 11.43,-1.9 15.59,-3.78 4.16,-1.88 8.27,-3.26 12.74,-5.61 4.47,-2.35 10.25,-5.66 14.88,-8.32 4.63,-2.67 10.37,-6.6 13.79,-9.24 3.43,-2.64 6.87,-4.16 10.71,-6.83 3.84,-2.67 4.59,-0.94 8.28,-3.21 3.68,-2.27 7.05,-2.3 10.11,-3.79 3.06,-1.49 9.62,-3.6 12.61,-4.37 2.98,-0.77 6.16,-2.19 9.69,-3.13 3.53,-0.94 4.41,-1.34 7.78,-2.45 3.37,-1.12 5.01,-1.68 7.67,-2.47 2.67,-0.78 5.82,-1.79 8.78,-4.2 2.96,-2.41 5.66,-5.49 7.28,-7.91 1.62,-2.41 1.38,-4.13 2.25,-4.47z"/>
  <path class="fil2 str2" d="M111.83 95.81c-4.23,-2.2 -8.47,-4.39 -10.82,-7.53 -2.35,-3.14 -2.82,-7.21 -1.49,-10.27 1.33,-3.06 4.47,-5.1 7.45,-6.74 2.98,-1.65 5.8,-2.9 8.86,-3.14 3.06,-0.24 6.35,0.55 9.09,1.8 2.74,1.25 4.94,2.98 6.43,5.02 1.49,2.04 2.27,4.39 3.14,7.29 0.86,2.9 1.8,6.35 1.96,9.8 0.16,3.45 -0.47,6.9 -1.25,9.72 -0.78,2.82 -1.73,5.02 -2.98,7.37 -1.25,2.35 -2.82,4.86 -4.47,6.98 -1.65,2.12 -3.37,3.84 -5.96,5.72 -2.59,1.88 -6.04,3.92 -9.8,5.25 -3.76,1.33 -7.84,1.96 -12,1.96 -4.16,0 -8.39,-0.63 -11.92,-2.27 -3.53,-1.65 -6.35,-4.31 -9.88,-7.84 -3.53,-3.53 -7.76,-7.92 -10.66,-13.17 -2.9,-5.25 -4.47,-11.37 -4.78,-16.62 -0.31,-5.25 0.63,-9.64 2.9,-14.9 2.27,-5.25 5.88,-11.37 9.57,-16.93 3.68,-5.57 7.45,-10.59 11.84,-14.51 4.39,-3.92 9.41,-6.74 14.66,-8.78 5.25,-2.04 10.74,-3.29 16.46,-3.92 5.72,-0.63 11.68,-0.63 17.09,-0.39 5.41,0.24 10.27,0.71 14.43,2.27 4.15,1.57 7.6,4.23 10.82,6.82 3.21,2.59 6.19,5.1 9.17,7.68 2.98,2.59 5.96,5.25 8.15,8.39 2.2,3.14 3.61,6.74 4.7,10.35 1.1,3.61 1.88,7.21 2.67,11.52 0.78,4.31 1.57,9.33 2.27,14.03 0.71,4.7 1.33,9.09 0.78,14.82 -0.55,5.72 -2.27,12.78 -3.45,17.56 -1.18,4.78 -1.8,7.29 -3.21,11.13 -1.41,3.84 -3.61,9.02 -4.94,12.39 -1.33,3.37 -1.8,4.94 -2.67,6.51 -0.86,1.57 -2.12,3.14 -4.86,4.63 -2.74,1.49 -6.98,2.9 -12,3.92 -5.02,1.02 -10.82,1.65 -15.99,2.12 -5.17,0.47 -9.72,0.78 -13.88,0.94 -4.16,0.16 -7.92,0.16 -12.07,-0.39 -4.16,-0.55 -8.7,-1.65 -12.78,-3.06 -4.08,-1.41 -7.68,-3.14 -11.37,-5.11 -3.68,-1.97 -7.45,-4.19 -11.23,-6.54 -3.79,-2.34 -7.6,-4.81 -12.03,-8.11 -4.43,-3.3 -9.47,-7.43 -13.17,-13.86 -3.7,-6.43 -6.06,-15.16 -8.06,-22.27 -2,-7.11 -3.65,-12.61 -5.29,-18.1"/>
  <g id="_2311016347328">
   <path class="fil2 str3" d="M390.54 37.42l6.93 5.82m-24.62 29.34l-6.93 -5.82"/>
   <rect class="fil3 str3" transform="matrix(0.515033 0.432164 -0.108477 0.129278 362.695 70.6023)" width="13.46" height="56.97"/>
   <path class="fil2 str3" d="M365.92 66.76c1.75,-4.24 3.5,-8.48 5.32,-12.14 1.81,-3.66 3.68,-6.75 5.6,-9.35 1.91,-2.59 3.87,-4.69 5.37,-6.09 1.5,-1.4 2.55,-2.1 3.86,-2.27 1.31,-0.18 2.9,0.17 3.69,0.34 0.79,0.17 0.79,0.17 0.79,0.17"/>
   <path class="fil2 str3" d="M372.85 72.58c3.87,-2.46 7.74,-4.92 11.03,-7.34 3.29,-2.42 6.01,-4.8 8.23,-7.13 2.22,-2.34 3.95,-4.63 5.07,-6.35 1.12,-1.72 1.62,-2.87 1.57,-4.2 -0.05,-1.32 -0.67,-2.82 -0.97,-3.57 -0.31,-0.75 -0.31,-0.75 -0.31,-0.75"/>
  </g>
  <path class="fil3 str4" d="M372.85 72.58c3.87,-2.46 7.74,-4.92 11.03,-7.34 3.29,-2.42 6.01,-4.8 8.23,-7.13 2.22,-2.34 3.95,-4.63 5.06,-6.35 1.12,-1.72 1.62,-2.87 1.57,-4.2 -0.05,-1.33 -0.67,-2.82 -0.97,-3.57 -0.31,-0.75 -0.31,-0.75 -0.31,-0.75l-6.93 -5.82c0,0 0,0 -0.79,-0.17 -0.79,-0.17 -2.37,-0.51 -3.69,-0.34 -1.31,0.18 -2.36,0.88 -3.86,2.28 -1.5,1.4 -3.46,3.5 -5.37,6.09 -1.91,2.59 -3.79,5.68 -5.6,9.35 -1.81,3.66 -3.56,7.9 -5.32,12.14l6.93 5.82z"/>
  <g id="_2311016353568">
   <path class="fil2 str3" d="M356.37 18.31l8.5 3.09m-13.1 36l-8.5 -3.09"/>
   <rect class="fil3 str3" transform="matrix(0.631781 0.22995 -0.0577194 0.158583 341.555 59.0202)" width="13.46" height="56.97"/>
   <path class="fil2 str3" d="M343.27 54.31c0.2,-4.58 0.39,-9.16 0.84,-13.23 0.45,-4.06 1.15,-7.61 2.06,-10.7 0.91,-3.09 2.03,-5.73 2.97,-7.56 0.93,-1.83 1.68,-2.84 2.85,-3.46 1.17,-0.62 2.78,-0.83 3.58,-0.94 0.8,-0.11 0.8,-0.11 0.8,-0.11"/>
   <path class="fil2 str3" d="M351.77 57.4c2.79,-3.64 5.59,-7.27 7.86,-10.67 2.27,-3.4 4.01,-6.57 5.3,-9.52 1.29,-2.96 2.13,-5.7 2.59,-7.7 0.46,-2 0.54,-3.25 0.04,-4.48 -0.5,-1.23 -1.59,-2.43 -2.14,-3.02 -0.54,-0.6 -0.54,-0.6 -0.54,-0.6"/>
  </g>
  <path class="fil3 str4" d="M351.77 57.4c2.8,-3.64 5.59,-7.27 7.86,-10.67 2.27,-3.4 4.01,-6.57 5.3,-9.52 1.29,-2.96 2.13,-5.7 2.59,-7.7 0.46,-2 0.54,-3.25 0.04,-4.48 -0.5,-1.23 -1.59,-2.42 -2.14,-3.02 -0.55,-0.6 -0.55,-0.6 -0.55,-0.6l-8.5 -3.09c0,0 0,0 -0.8,0.11 -0.8,0.11 -2.41,0.33 -3.58,0.94 -1.17,0.62 -1.92,1.63 -2.85,3.46 -0.93,1.83 -2.06,4.47 -2.97,7.56 -0.91,3.09 -1.61,6.64 -2.06,10.7 -0.45,4.06 -0.65,8.64 -0.84,13.23l8.5 3.09z"/>
 </g>
</svg>
